<?xml version="1.0" standalone="no"?>
<!DOCTYPE svg PUBLIC "-//W3C//DTD SVG 1.1//EN" "http://www.w3.org/Graphics/SVG/1.1/DTD/svg11.dtd" >
<svg xmlns="http://www.w3.org/2000/svg" xmlns:xlink="http://www.w3.org/1999/xlink" version="1.1">
<metadata></metadata>
<defs>
<font id="isocp2regular" horiz-adv-x="1032" >
<font-face units-per-em="2048" ascent="1638" descent="-410" />
<missing-glyph horiz-adv-x="590" />
<glyph horiz-adv-x="0" />
<glyph unicode="&#xd;" horiz-adv-x="590" />
<glyph unicode=" "  horiz-adv-x="590" />
<glyph unicode="&#x09;" horiz-adv-x="590" />
<glyph unicode="&#xa0;" horiz-adv-x="590" />
<glyph unicode="!" horiz-adv-x="442" d="M206 0v74h30v-74h-30zM206 443v884h30v-884h-30z" />
<glyph unicode="&#x22;" horiz-adv-x="885" d="M207 1036l74 295l29 -7l-74 -295zM575 1036l74 295l29 -7l-74 -295z" />
<glyph unicode="#" horiz-adv-x="1327" d="M221 427v30h206v413h-206v29h206v428h30v-428h413v428h29v-428h207v-29h-207v-413h207v-30h-207v-427h-29v427h-413v-427h-30v427h-206zM457 457h413v413h-413v-413z" />
<glyph unicode="$" d="M206 958q0 230 295 236v133h30v-133q159 -5 287 -75l-14 -26q-123 67 -273 72v-490q79 -45 149 -86q146 -86 146 -220q0 -230 -295 -236v-133h-30v133q-159 5 -287 75l15 26q122 -67 272 -72v493q-173 98 -218 138q-77 70 -77 165zM236 958q0 -84 65 -143q29 -26 135 -87 q30 -17 65 -37v474q-265 -6 -265 -207zM531 162q265 5 265 207q0 89 -64 147q-26 24 -136 87q-17 10 -65 36v-477z" />
<glyph unicode="%" horiz-adv-x="1622" d="M206 1106q0 98 69.5 167t167.5 69t167 -69t69 -167t-69 -167t-167 -69t-167.5 69t-69.5 167zM211 10l1179 1326l22 -18l-1180 -1328zM236 1106q0 -86 60.5 -146.5t146.5 -60.5q85 0 145.5 60.5t60.5 146.5t-60 146t-146 60t-146.5 -60.5t-60.5 -145.5zM944 221 q0 98 69 167t167 69t167 -69t69 -167t-69 -166.5t-167 -68.5t-167 68.5t-69 166.5zM973 221q0 -86 60.5 -146.5t146.5 -60.5q85 0 145.5 60.5t60.5 146.5t-60 146t-146 60t-146.5 -60.5t-60.5 -145.5z" />
<glyph unicode="&#x26;" horiz-adv-x="1327" d="M210 206q0 88 84 208l201 288l-154 241q-47 74 -47 167q0 97 53 160q60 72 169 72q136 0 198 -102q38 -63 38 -132q0 -89 -93 -222l-129 -185l291 -456l276 209l18 -24l-279 -210l135 -212l-25 -16l-133 210l-185 -140q-95 -72 -191 -72q-84 0 -152 62q-75 68 -75 154z M240 208q0 -75 65 -134q59 -54 134 -54q85 0 171 65l186 142l-284 448l-194 -278q-78 -112 -78 -189zM323 1109q0 -82 43 -150l147 -231l121 175q89 128 89 205q0 61 -34 116q-54 88 -173 88q-93 0 -146 -62q-47 -56 -47 -141z" />
<glyph unicode="'" horiz-adv-x="516" d="M207 1036l74 295l29 -7l-74 -295z" />
<glyph unicode="(" horiz-adv-x="590" d="M206 663q0 448 149 817l27 -11q-146 -585 -146 -806q0 -195 36 -407q40 -239 110 -397l-27 -12q-149 368 -149 816z" />
<glyph unicode=")" horiz-adv-x="590" d="M208 -141q146 583 146 804q0 195 -36 408q-40 240 -110 398l27 11q19 -41 75 -227q73 -283 73 -590q0 -198 -36 -413q-41 -243 -112 -403z" />
<glyph unicode="*" d="M211 157l284 286l-284 284l20 21l285 -285l285 285l21 -21l-285 -284l285 -286l-21 -20l-285 284l-285 -284z" />
<glyph unicode="+" d="M221 427v30h280v280h30v-280h280v-30h-280v-279h-30v279h-280z" />
<glyph unicode="," horiz-adv-x="516" d="M207 -292l74 296l29 -8l-74 -295z" />
<glyph unicode="-" d="M221 427v30h590v-30h-590z" />
<glyph unicode="." horiz-adv-x="442" d="M206 0v74h30v-74h-30z" />
<glyph unicode="/" d="M208 6l589 1327l27 -12l-589 -1327z" />
<glyph unicode="0" d="M206 610v107q0 149 49 314q46 154 106.5 232.5t154.5 78.5t154.5 -78.5t106.5 -232.5q49 -165 49 -314v-107q0 -149 -49 -313q-46 -154 -106.5 -232.5t-154.5 -78.5t-154.5 78.5t-106.5 232.5q-49 164 -49 313zM236 610q0 -128 43 -288q49 -185 123 -260q47 -48 114 -48 q79 0 132 69q56 74 101 222q47 160 47 305v107q0 145 -47 305q-45 149 -101 223q-51 67 -132 67t-132 -67q-56 -74 -101 -223q-47 -160 -47 -305v-107z" />
<glyph unicode="1" horiz-adv-x="737" d="M211 1042l285 285h35v-1327h-30v1291l-270 -270z" />
<glyph unicode="2" d="M194 -14l546 882q47 77 47 166q0 113 -72 193q-76 85 -199 85q-184 0 -268 -176q-9 -18 -13 -33l-28 9q30 101 116.5 165.5t192.5 64.5q137 0 222 -95q78 -87 78 -213q0 -98 -51 -181l-518 -839h564v-28h-617z" />
<glyph unicode="3" d="M221 -14v28h266q126 0 210 73q99 85 99 241v103q0 128 -91 213q-71 66 -155 79h-181v29h181q88 16 153 72q93 79 93 208q0 140 -90 216q-77 64 -190 64h-295v30h295q123 0 209 -72q101 -84 101 -238q0 -218 -218 -295q87 -32 145 -100q73 -87 73 -206v-103 q0 -170 -109 -263q-94 -79 -230 -79h-266z" />
<glyph unicode="4" horiz-adv-x="1180" d="M202 280l300 1051l28 -8l-290 -1013h483v279h29v-279h206v-30h-206v-280h-29v280h-521z" />
<glyph unicode="5" d="M206 723v619h531v-30h-501v-560h243q117 0 210 -59q137 -87 137 -275v-90q0 -342 -339 -342h-266v28h266q309 0 309 314v90q0 171 -123 250q-85 55 -194 55h-273z" />
<glyph unicode="6" d="M206 280v409q0 266 177 466q128 145 277 186l8 -28q-138 -38 -262 -178q-151 -171 -168 -383h265q323 0 323 -284v-136q0 -150 -86.5 -248t-223.5 -98q-136 0 -228 98q-82 88 -82 196zM236 280q0 -96 74 -177q83 -89 206 -89q124 0 202 89t78 229v136q0 255 -293 255 h-266q-1 -25 -1 -34v-409z" />
<glyph unicode="7" d="M206 1180v162h624l-300 -1346l-29 8l292 1308h-557v-132h-30z" />
<glyph unicode="8" d="M206 267v176q0 110 64 191q58 74 151 103q-95 30 -155 111.5t-60 183.5q0 128 91 219t219 91t219 -91t91 -219q0 -102 -60 -183.5t-155 -111.5q93 -29 151 -103q64 -81 64 -191v-176q0 -108 -86 -192q-92 -89 -224 -89t-224 89q-86 84 -86 192zM236 267q0 -96 77 -172 q83 -81 203 -81t203 81q77 76 77 172v176q0 125 -87 206q-81 74 -193 74t-193 -74q-87 -81 -87 -206v-176zM236 1032q0 -116 82 -198t198 -82t198 82t82 198t-82 198t-198 82t-198 -82t-82 -198z" />
<glyph unicode="9" d="M206 859v136q0 150 86.5 248.5t223.5 98.5q136 0 228 -99q82 -88 82 -196v-409q0 -265 -177 -465q-130 -147 -276 -187l-9 28q137 38 262 179q151 171 168 382h-265q-323 0 -323 284zM236 859q0 -254 293 -254h267v33v409q0 96 -74 176q-83 89 -206 89q-124 0 -202 -89 t-78 -228v-136z" />
<glyph unicode=":" horiz-adv-x="442" d="M206 148v73h30v-73h-30zM206 663v74h30v-74h-30z" />
<glyph unicode=";" horiz-adv-x="516" d="M207 -292l74 296l29 -8l-74 -295zM280 516v73h30v-73h-30z" />
<glyph unicode="&#x3c;" d="M179 443l626 235l11 -28l-553 -207l553 -208l-11 -28z" />
<glyph unicode="=" d="M221 206v30h590v-30h-590zM221 649v30h590v-30h-590z" />
<glyph unicode="&#x3e;" d="M216 235l553 208l-553 207l11 28l626 -235l-626 -236z" />
<glyph unicode="?" d="M211 1249q20 20 119 53q118 40 203 40q146 0 226 -82q67 -68 67 -161q0 -64 -44 -126q-21 -30 -90 -99l-109 -109q-52 -64 -52 -139v-183h-30v183q0 83 54 152q6 7 116 117q65 65 84 90q41 57 41 114q0 81 -58 140q-71 73 -205 73q-81 0 -194 -38q-93 -31 -108 -46z M501 0v74h30v-74h-30z" />
<glyph unicode="@" horiz-adv-x="1622" d="M206 92v627q0 223 139 403q170 220 466 220q252 0 422 -165q183 -179 183 -477v-368q0 -170 -19 -228q-40 -118 -180 -118q-145 0 -189 135q-61 -135 -217 -135q-122 0 -184 95q-52 81 -52 214v331q0 122 61 194q68 79 194 79h217v-714q7 -72 50 -119q47 -52 120 -52 q123 0 155 111q14 46 14 207v368q0 286 -174 456q-161 156 -401 156q-281 0 -442 -208q-133 -172 -133 -385v-627q0 -251 189 -400q150 -119 312 -119v-30q-172 0 -331 125q-200 158 -200 424zM605 295q0 -281 206 -281q78 0 137 49t70 122l-1 685h-187q-225 0 -225 -244 v-331z" />
<glyph unicode="A" horiz-adv-x="1327" d="M207 4l441 1323h31l441 -1323l-28 -8l-120 358h-617l-120 -358zM364 383h599l-300 898z" />
<glyph unicode="B" horiz-adv-x="1180" d="M206 -14v1356h383q107 0 188 -48q132 -78 132 -262q0 -214 -215 -293q279 -71 279 -370q0 -220 -171 -321q-105 -62 -213 -62h-383zM236 14h353q101 0 198 58q157 94 157 297q0 298 -319 354h-389v-709zM236 752h390q60 0 139 57q114 81 114 223q0 166 -118 236 q-73 44 -172 44h-353v-560z" />
<glyph unicode="C" d="M206 369v589q0 191 112 292q101 92 271 92h222v-30h-222q-159 0 -251 -84q-102 -92 -102 -270v-589q0 -178 102 -271q92 -84 251 -84h222v-28h-222q-170 0 -271 91q-112 101 -112 292z" />
<glyph unicode="D" horiz-adv-x="1180" d="M206 -14v1356h347q142 0 270 -106q150 -124 150 -314v-516q0 -190 -150 -314q-128 -106 -270 -106h-347zM236 14h317q132 0 252 100q139 116 139 292v516q0 176 -139 291q-120 99 -252 99h-317v-1298z" />
<glyph unicode="E" d="M206 -14v1356h605v-30h-575v-560h427v-29h-427v-709h575v-28h-605z" />
<glyph unicode="F" d="M206 0v1342h605v-30h-575v-560h575v-29h-575v-723h-30z" />
<glyph unicode="G" horiz-adv-x="1180" d="M206 369v589q0 174 125 285q112 99 258 99h369v-30h-369q-135 0 -238 -92q-115 -101 -115 -262v-589q0 -161 110 -262q101 -93 243 -93h355v709h-207v29h236v-766h-384q-153 0 -263 100q-120 109 -120 283z" />
<glyph unicode="H" horiz-adv-x="1180" d="M206 0v1327h30v-575h708v575h29v-1327h-29v723h-708v-723h-30z" />
<glyph unicode="I" horiz-adv-x="442" d="M206 0v1327h30v-1327h-30z" />
<glyph unicode="J" horiz-adv-x="885" d="M221 -14v28h148q116 0 198 82.5t82 198.5v1032h30v-1032q0 -128 -91 -218.5t-219 -90.5h-148z" />
<glyph unicode="K" horiz-adv-x="1180" d="M206 0v1327h30v-773l712 783l21 -19l-444 -490l446 -821l-25 -14l-443 812l-267 -295v-510h-30z" />
<glyph unicode="L" d="M206 -14v1341h30v-1313h575v-28h-605z" />
<glyph unicode="M" horiz-adv-x="1327" d="M206 0v1327h32l425 -709l426 709h31v-1327h-29v1273l-428 -711l-427 711v-1273h-30z" />
<glyph unicode="N" horiz-adv-x="1180" d="M206 0v1327h32l706 -1270v1270h29v-1327h-32l-705 1270v-1270h-30z" />
<glyph unicode="O" horiz-adv-x="1180" d="M206 369v589q0 159 112 271.5t271 112.5t271.5 -112.5t112.5 -271.5v-589q0 -159 -112.5 -271t-271.5 -112t-271 112t-112 271zM236 369q0 -147 103.5 -251t249.5 -104q147 0 251 104t104 251v589q0 146 -104 250t-251 104q-146 0 -249.5 -103.5t-103.5 -250.5v-589z" />
<glyph unicode="P" horiz-adv-x="1180" d="M206 0v1342h365q153 0 257 -71q145 -99 145 -313q0 -216 -145 -314q-103 -69 -257 -69h-335v-575h-30zM236 605h335q146 0 241 64q132 89 132 289q0 198 -132 288q-96 66 -241 66h-335v-707z" />
<glyph unicode="Q" horiz-adv-x="1180" d="M206 369v589q0 159 112 271.5t271 112.5t271.5 -112.5t112.5 -271.5v-589q0 -108 -56 -200l198 -157l-18 -24l-196 157q-114 -159 -312 -159q-159 0 -271 112t-112 271zM236 369q0 -147 103.5 -251t249.5 -104q182 0 289 150l-150 119l18 23l149 -118q49 82 49 181v589 q0 146 -104 250t-251 104q-146 0 -249.5 -103.5t-103.5 -250.5v-589z" />
<glyph unicode="R" horiz-adv-x="1180" d="M206 0v1342h365q153 0 257 -71q145 -99 145 -313q0 -311 -287 -371l286 -581l-27 -12l-289 587q-40 -6 -85 -6h-335v-575h-30zM236 605h335q146 0 241 64q132 89 132 289q0 198 -132 288q-96 66 -241 66h-335v-707z" />
<glyph unicode="S" horiz-adv-x="1180" d="M206 1032q0 115 75 203q90 107 250 107q210 0 362 -89l-16 -25q-245 84 -346 84q-146 0 -227 -96q-68 -79 -68 -184q0 -179 184 -272q26 -11 66 -30q101 -48 288 -144q199 -110 199 -294q0 -111 -77 -202q-90 -104 -233 -104q-108 0 -234 42.5t-217 107.5l17 23 q327 -145 434 -145q129 0 211 95q70 82 70 183q0 112 -78 189q-51 51 -172 112l-222 111q-53 24 -153 87q-113 94 -113 241z" />
<glyph unicode="T" horiz-adv-x="1180" d="M221 1312v30h737v-30h-353v-1312h-30v1312h-354z" />
<glyph unicode="U" horiz-adv-x="1180" d="M206 369v958h30v-958q0 -147 103.5 -251t249.5 -104q147 0 251 104t104 251v958h29v-958q0 -159 -112.5 -271t-271.5 -112t-271 112t-112 271z" />
<glyph unicode="V" horiz-adv-x="1327" d="M207 1322l28 10l428 -1285l429 1285l28 -10l-441 -1322h-31z" />
<glyph unicode="W" horiz-adv-x="1622" d="M207 1324l29 6l283 -1274l292 887l292 -887l283 1274l29 -6l-294 -1324h-30l-280 849l-280 -849h-31z" />
<glyph unicode="X" horiz-adv-x="1327" d="M209 8l437 655l-437 655l24 18l430 -646l430 646l25 -18l-437 -655l437 -655l-25 -16l-430 645l-430 -645z" />
<glyph unicode="Y" horiz-adv-x="1364" d="M209 1318l24 18l447 -647l447 647l24 -18l-456 -659v-659h-30v659z" />
<glyph unicode="Z" horiz-adv-x="1180" d="M196 -14l737 1326h-712v30h763l-737 -1328h711v-28h-762z" />
<glyph unicode="[" horiz-adv-x="590" d="M206 -162v1651h163v-29h-133v-1592h133v-30h-163z" />
<glyph unicode="\" d="M208 1321l27 12l589 -1327l-27 -12z" />
<glyph unicode="]" horiz-adv-x="590" d="M221 -132h133v1592h-133v29h162v-1651h-162v30z" />
<glyph unicode="^" horiz-adv-x="442" d="M-10 1103l231 223l232 -223l-21 -22l-211 204l-211 -204z" />
<glyph unicode="_" horiz-adv-x="1622" d="M0 -427h1622v-30h-1622v30z" />
<glyph unicode="`" horiz-adv-x="406" d="M7 1303l18 24l294 -223l-18 -24z" />
<glyph unicode="a" d="M206 221q0 143 109 202q63 34 149 34h332v160q0 138 -102 204q-75 49 -178 49h-221v29h221q111 0 194 -53q116 -74 116 -229v-631h-362q-81 0 -145 33q-113 58 -113 202zM236 221q0 -125 97 -177q57 -30 131 -30h332v413h-332q-228 0 -228 -206z" />
<glyph unicode="b" d="M206 -14v1341h30v-428h317q113 0 193 -80t80 -193v-368q0 -113 -80 -192.5t-193 -79.5h-347zM236 14h317q101 0 172 71.5t71 172.5v368q0 101 -71 172.5t-172 71.5h-317v-856z" />
<glyph unicode="c" horiz-adv-x="885" d="M206 258v368q0 113 80 193t193 80h184v-29h-184q-101 0 -172 -71.5t-71 -172.5v-368q0 -101 71 -172.5t172 -71.5h184v-28h-184q-113 0 -193 79.5t-80 192.5z" />
<glyph unicode="d" d="M206 258v368q0 113 80 193t193 80h317v428h30v-1341h-347q-113 0 -193 79.5t-80 192.5zM236 258q0 -101 71 -172.5t172 -71.5h317v856h-317q-101 0 -172 -71.5t-71 -172.5v-368z" />
<glyph unicode="e" d="M206 295v294q0 128 91 219t219 91t219 -91t91 -219v-162h-590v-132q0 -169 67 -230q56 -51 191 -51h317v-28h-317q-147 0 -211 58q-77 69 -77 251zM236 457h560v132q0 116 -82 198.5t-198 82.5t-198 -82.5t-82 -198.5v-132z" />
<glyph unicode="f" horiz-adv-x="885" d="M221 870v29h133v96q0 128 52 216q79 131 257 131v-30q-161 0 -232 -117q-48 -80 -48 -200v-96h280v-29h-280v-870h-29v870h-133z" />
<glyph unicode="g" d="M206 258v368q0 113 80 193t193 80h347v-1047q0 -309 -328 -309h-203v30h203q298 0 298 279v134h-317q-113 0 -193 79.5t-80 192.5zM236 258q0 -101 71 -172.5t172 -71.5h317v856h-317q-101 0 -172 -71.5t-71 -172.5v-368z" />
<glyph unicode="h" d="M206 0v1327h30v-428h317q113 0 193 -80t80 -193v-626h-30v626q0 101 -71 172.5t-172 71.5h-317v-870h-30z" />
<glyph unicode="i" horiz-adv-x="442" d="M206 0v885h30v-885h-30zM206 1254v73h30v-73h-30z" />
<glyph unicode="j" horiz-adv-x="737" d="M221 -427h37q101 0 172 71t71 172v1069h30v-1069q0 -113 -80 -193t-193 -80h-37v30zM501 1254v73h30v-73h-30z" />
<glyph unicode="k" d="M206 0v1327h30v-861l569 285l12 -27l-282 -141l289 -577l-27 -12l-288 576l-273 -137v-433h-30z" />
<glyph unicode="l" horiz-adv-x="590" d="M206 148v1179h30v-1179q0 -55 39 -94.5t94 -39.5v-28q-67 0 -115 47.5t-48 114.5z" />
<glyph unicode="m" horiz-adv-x="1327" d="M206 0v899h642q113 0 192.5 -80t79.5 -193v-626h-29v626q0 101 -71 172.5t-172 71.5h-169v-870h-30v870h-413v-870h-30z" />
<glyph unicode="n" d="M206 0v899h347q113 0 193 -80t80 -193v-626h-30v626q0 101 -71 172.5t-172 71.5h-317v-870h-30z" />
<glyph unicode="o" d="M206 295v294q0 128 91 219t219 91t219 -91t91 -219v-294q0 -128 -91 -218.5t-219 -90.5t-219 90.5t-91 218.5zM236 295q0 -116 82 -198.5t198 -82.5t198 82.5t82 198.5v294q0 116 -82 198.5t-198 82.5t-198 -82.5t-82 -198.5v-294z" />
<glyph unicode="p" d="M206 -443v1342h347q113 0 193 -80t80 -193v-368q0 -113 -80 -192.5t-193 -79.5h-317v-429h-30zM236 14h317q101 0 172 71.5t71 172.5v368q0 101 -71 172.5t-172 71.5h-317v-856z" />
<glyph unicode="q" d="M206 258v368q0 113 80 193t193 80h347v-1342h-30v429h-317q-113 0 -193 79.5t-80 192.5zM236 258q0 -101 71 -172.5t172 -71.5h317v856h-317q-101 0 -172 -71.5t-71 -172.5v-368z" />
<glyph unicode="r" horiz-adv-x="885" d="M206 0v899h473v-162h-30v133h-413v-870h-30z" />
<glyph unicode="s" d="M206 700q0 199 237 199q144 0 284 -75l-13 -26q-208 72 -271 72q-207 0 -207 -170q0 -83 76 -136q13 -9 148 -75q118 -53 293 -152q73 -58 73 -153q0 -198 -310 -198q-129 0 -301 74l12 27q178 -73 289 -73q136 0 201 33q79 40 79 137q0 84 -76 140q-22 16 -148 77 l-217 105q-149 74 -149 194z" />
<glyph unicode="t" horiz-adv-x="885" d="M221 870v29h133v428h29v-428h280v-29h-280v-870h-29v870h-133z" />
<glyph unicode="u" d="M206 258v627h30v-627q0 -101 71 -172.5t172 -71.5h317v871h30v-899h-347q-113 0 -193 79.5t-80 192.5z" />
<glyph unicode="v" d="M207 880l28 9l281 -842l281 842l28 -9l-294 -880h-31z" />
<glyph unicode="w" horiz-adv-x="1327" d="M207 881l29 7l209 -839l218 583l219 -583l210 839l28 -7l-220 -881h-32l-205 548l-205 -548h-31z" />
<glyph unicode="x" d="M209 8l290 435l-290 434l24 16l283 -424l282 424l25 -16l-289 -434l289 -435l-25 -16l-282 424l-283 -424z" />
<glyph unicode="y" d="M207 880l28 9l281 -842l281 842l28 -9l-446 -1337h-158v30h137l142 427z" />
<glyph unicode="z" d="M193 -14l591 884h-563v29h618l-591 -885h563v-28h-618z" />
<glyph unicode="{" horiz-adv-x="737" d="M133 663q116 20 142 32q69 31 77 113q2 20 2 96v342q0 127 38 175q57 73 125 68l-1 -29q-3 1 -8 0q-48 -5 -82.5 -44.5t-40.5 -88.5q-2 -15 -2 -81v-342q0 -103 -11 -141q-20 -71 -93 -100q73 -29 93 -99q11 -37 11 -140v-343q0 -84 14 -123q22 -63 87 -85q16 -6 32 -5 l1 -30q-6 -1 -13 0q-59 6 -101 55q-39 45 -47 106q-2 16 -2 82v343q0 110 -14 145q-27 64 -121 80z" />
<glyph unicode="|" horiz-adv-x="406" d="M188 -626v2727h30v-2727h-30z" />
<glyph unicode="}" horiz-adv-x="737" d="M220 -162l2 30q2 -1 7 0q49 5 84 46q33 38 39 89q2 16 2 78v343q0 102 11 140q21 70 94 99q-73 29 -94 100q-11 39 -11 141v342q0 116 -32 157q-46 59 -100 57l-2 29q6 1 13 0q58 -6 100 -54q40 -44 48 -104q2 -16 2 -85v-342q0 -110 14 -146q27 -64 121 -80l86 -15 q-116 -20 -142 -32q-69 -31 -77 -113q-2 -20 -2 -94v-343q0 -128 -37 -175q-57 -73 -126 -68z" />
<glyph unicode="~" horiz-adv-x="634" d="M9 1310q71 80 167 80q64 0 152 -77t156 -77q92 0 115 51l27 -11q-1 -2 -7 -12q-40 -58 -135 -58q-79 0 -167 77.5t-141 77.5q-75 0 -144 -70z" />
<glyph unicode="&#xa1;" horiz-adv-x="442" d="M206 0v885h30v-885h-30zM206 1254v73h30v-73h-30z" />
<glyph unicode="&#xa2;" d="M206 301v283q0 145 75 230t198 85h96v209h30v-209h206v-29h-206v-856h206v-28h-206v-207h-30v207h-96q-123 0 -198 85t-75 230zM236 301q0 -135 67 -211t176 -76h96v856h-96q-109 0 -175 -74q-68 -77 -68 -212v-283z" />
<glyph unicode="&#xa3;" horiz-adv-x="1327" d="M221 -14v28q100 0 154 68q52 65 52 176v391h-206v30h206v353q0 96 54 182q80 128 243 128q164 0 254 -116q69 -89 69 -194h-30q0 95 -63 176q-82 104 -230 104q-146 0 -218 -114q-49 -78 -49 -166v-353h280v-30h-280v-391q0 -177 -116 -244h470q139 0 200 36 q80 46 80 171h29q0 -142 -95 -196q-68 -39 -214 -39h-590z" />
<glyph unicode="&#xa4;" horiz-adv-x="1327" d="M205 664q0 178 121 310l-98 100l20 20l98 -100q133 128 317 128q187 0 319 -128l99 100l21 -20l-99 -101q118 -130 118 -309q0 -180 -122 -311l101 -103l-21 -21l-101 102q-132 -125 -315 -125q-182 0 -314 125l-101 -102l-20 21l100 103q-123 132 -123 311zM235 664 q0 -178 125 -303t303 -125t303.5 125.5t125.5 302.5q0 178 -125.5 303.5t-303.5 125.5q-177 0 -302.5 -125.5t-125.5 -303.5z" />
<glyph unicode="&#xa5;" horiz-adv-x="1364" d="M209 1318l24 18l404 -584h87l403 584l24 -18l-391 -566h346v-29h-367l-44 -64v-276h411v-29h-411v-354h-30v354h-407v29h407v276l-44 64h-363v29h343zM657 723l23 -34l23 34h-46z" />
<glyph unicode="&#xa6;" horiz-adv-x="442" d="M206 0v553h30v-553h-30zM206 774v553h30v-553h-30z" />
<glyph unicode="&#xa7;" horiz-adv-x="885" d="M206 663q0 75 43 136t111 86q-68 25 -111 85.5t-43 135.5q0 98 69.5 167t167.5 69q76 0 136 -44t85 -114l-28 -10q-49 138 -193 138q-86 0 -146.5 -60.5t-60.5 -145.5q0 -86 60.5 -146.5t146.5 -60.5q98 0 167 -69t69 -167q0 -75 -43 -135t-111 -85q68 -25 111 -86 t43 -136q0 -98 -69 -166.5t-167 -68.5q-76 0 -137 43.5t-86 112.5l28 10q22 -61 75 -99.5t120 -38.5q85 0 145.5 60.5t60.5 146.5t-60 146t-146 60q-98 0 -167.5 69t-69.5 167zM236 663q0 -85 60.5 -145.5t146.5 -60.5t146 60t60 146t-60.5 146.5t-145.5 60.5 q-86 0 -146.5 -60.5t-60.5 -146.5z" />
<glyph unicode="&#xa8;" horiz-adv-x="492" d="M10 1092v74h30v-74h-30zM453 1092v74h29v-74h-29z" />
<glyph unicode="&#xa9;" horiz-adv-x="1327" d="M205 664q0 190 134 324t324 134t324 -134t134 -324t-134 -324t-324 -134t-324 134t-134 324zM235 664q0 -178 125 -303t303 -125t303.5 125.5t125.5 302.5q0 178 -125.5 303.5t-303.5 125.5q-177 0 -302.5 -125.5t-125.5 -303.5zM317 663q0 144 101.5 245.5t244.5 101.5 q149 0 251 -107l-20 -21q-94 99 -231 99q-131 0 -224 -93.5t-93 -224.5t93 -224t224 -93q142 0 237 106l22 -19q-104 -116 -259 -116q-144 0 -245 101t-101 245z" />
<glyph unicode="&#xaa;" d="M206 774q0 199 258 199h332v87q0 138 -102 204q-74 48 -178 48h-221v30h221q111 0 194 -53q116 -74 116 -229v-485h-362q-258 0 -258 199zM221 206v30h590v-30h-590zM236 774q0 -169 228 -169h332v339h-332q-228 0 -228 -170z" />
<glyph unicode="&#xab;" horiz-adv-x="1106" d="M203 424l227 358l24 -16l-216 -342l216 -342l-24 -16zM646 424l226 358l25 -16l-216 -342l216 -342l-25 -16z" />
<glyph unicode="&#xac;" horiz-adv-x="664" d="M0 649v30h457v-753h-30v723h-427z" />
<glyph unicode="&#xad;" d="M221 427v30h590v-30h-590z" />
<glyph unicode="&#xae;" horiz-adv-x="1327" d="M205 664q0 190 134 324t324 134t324 -134t134 -324t-134 -324t-324 -134t-324 134t-134 324zM235 664q0 -178 125 -303t303 -125t303.5 125.5t125.5 302.5q0 178 -125.5 303.5t-303.5 125.5q-177 0 -302.5 -125.5t-125.5 -303.5zM464 406v530h273q72 0 117 -44.5 t45 -117.5q0 -122 -127 -156l125 -205l-25 -15l-131 215q-11 -1 -17 -1h-230v-206h-30zM494 642h230q58 0 102 37t44 95q0 61 -36.5 97t-96.5 36h-243v-265z" />
<glyph unicode="&#xaf;" horiz-adv-x="510" d="M-30 1121v30h570v-30h-570z" />
<glyph unicode="&#xb0;" horiz-adv-x="885" d="M206 1106q0 98 69.5 167t167.5 69t167 -69t69 -167t-69 -167t-167 -69t-167.5 69t-69.5 167zM236 1106q0 -86 60.5 -146.5t146.5 -60.5q85 0 145.5 60.5t60.5 146.5t-60 146t-146 60t-146.5 -60.5t-60.5 -145.5z" />
<glyph unicode="&#xb1;" d="M221 95v30h590v-30h-590zM221 575v30h280v280h30v-280h280v-30h-280v-280h-30v280h-280z" />
<glyph unicode="&#xb2;" horiz-adv-x="885" d="M185 1017q140 133 402 400q58 63 58 135q0 69 -58 130q-64 68 -153 68q-117 0 -200 -129l-25 15q34 60 96 101t129 41q102 0 175 -76q66 -70 66 -150q0 -62 -32 -112q-19 -28 -77 -86l-309 -307h407v-30h-479z" />
<glyph unicode="&#xb3;" horiz-adv-x="737" d="M216 1750v28h67q71 0 118 -40q51 -42 51 -111q0 -101 -91 -148q73 -23 119 -85t46 -140q0 -98 -69 -167.5t-167 -69.5h-70v30h70q85 0 145.5 60.5t60.5 146.5t-60 146t-146 60h-35v29h28q57 0 98 40.5t41 97.5q0 55 -39.5 89t-99.5 34h-67z" />
<glyph unicode="&#xb4;" horiz-adv-x="406" d="M92 1104l294 223l18 -24l-294 -223z" />
<glyph unicode="&#xb5;" d="M206 -443v1328h30v-590q0 -156 40 -220q61 -97 240 -97t240 97q40 64 40 220v590h30v-590q0 -164 -45 -236q-68 -110 -265 -110q-220 0 -280 139v-531h-30z" />
<glyph unicode="&#xb6;" horiz-adv-x="1290" d="M210 1032q0 130 90.5 220t219.5 90h549v-30h-96v-1312h-29v1312h-413v-1312h-30v723q-124 6 -207.5 93.5t-83.5 215.5zM239 1032q0 -116 75 -195t187 -85v560q-110 -7 -186 -87t-76 -193z" />
<glyph unicode="&#xb7;" horiz-adv-x="516" d="M221 427v30h74v-30h-74z" />
<glyph unicode="&#xb8;" horiz-adv-x="516" d="M207 -292l74 296l29 -8l-74 -295z" />
<glyph unicode="&#xb9;" horiz-adv-x="664" d="M210 1483l247 324v-775h-30v689l-194 -256z" />
<glyph unicode="&#xba;" d="M206 904v109q0 115 59 204q82 125 251 125t251 -125q59 -89 59 -204v-109q0 -115 -59 -204q-82 -125 -251 -125t-251 125q-59 89 -59 204zM221 206v30h590v-30h-590zM236 904q0 -107 54 -187q74 -112 226 -112t226 112q54 80 54 187v109q0 107 -54 187q-74 112 -226 112 t-226 -112q-54 -80 -54 -187v-109z" />
<glyph unicode="&#xbb;" horiz-adv-x="1106" d="M209 82l216 342l-216 342l25 16l226 -358l-226 -358zM651 82l217 342l-217 342l25 16l226 -358l-226 -358z" />
<glyph unicode="&#xbc;" horiz-adv-x="1622" d="M210 1189l247 330v-782h-30v693l-194 -259zM355 7l738 1328l26 -15l-737 -1327zM862 59l231 537l27 -12l-213 -496h331v133h30v-133h132v-29h-132v-207h-30v207h-376z" />
<glyph unicode="&#xbd;" horiz-adv-x="1622" d="M210 1189l247 330v-782h-30v693l-194 -259zM355 7l738 1328l26 -15l-737 -1327zM922 -162l395 379q61 59 61 152q0 84 -50 142q-55 64 -148 64q-100 0 -160 -58q-37 -36 -47 -78l-29 6q12 50 55 92q68 68 181 68q108 0 171 -73q56 -65 56 -160q0 -109 -70 -176l-342 -328 h405v-30h-478z" />
<glyph unicode="&#xbe;" horiz-adv-x="1475" d="M208 7l738 1328l25 -15l-737 -1327zM221 723v29h74q86 0 146 60t60 146t-60.5 146.5t-145.5 60.5h-37v29h37q55 0 93.5 39t38.5 94q0 54 -43.5 93.5t-105.5 39.5h-57v29h57q73 0 126 -47t53 -115q0 -99 -88 -144q71 -23 116.5 -85t45.5 -140q0 -98 -69 -166.5t-167 -68.5 h-74zM715 59l230 537l27 -12l-212 -496h331v133h29v-133h134v-29h-134v-207h-29v207h-376z" />
<glyph unicode="&#xbf;" d="M206 229q0 64 44 125q21 30 90 99q54 54 109 108q52 64 52 139v185h30v-185q0 -83 -54 -151q-4 -5 -116 -117q-66 -66 -84 -90q-41 -56 -41 -113q0 -81 58 -141q72 -74 205 -74q81 0 194 38q93 32 108 47l21 -21q-20 -20 -120 -53q-117 -39 -203 -39q-146 0 -226 82 q-67 68 -67 161zM501 1254v73h30v-73h-30z" />
<glyph unicode="&#xc0;" horiz-adv-x="1327" d="M207 4l441 1323h31l441 -1323l-28 -8l-120 358h-617l-120 -358zM364 383h599l-300 898zM478 1903l18 24l294 -223l-18 -24z" />
<glyph unicode="&#xc1;" horiz-adv-x="1327" d="M207 4l441 1323h31l441 -1323l-28 -8l-120 358h-617l-120 -358zM364 383h599l-300 898zM478 1704l294 223l18 -24l-294 -223z" />
<glyph unicode="&#xc2;" horiz-adv-x="1327" d="M207 4l441 1323h31l441 -1323l-28 -8l-120 358h-617l-120 -358zM364 383h599l-300 898zM432 1703l231 223l232 -223l-20 -22l-212 204l-210 -204z" />
<glyph unicode="&#xc3;" horiz-adv-x="1327" d="M207 4l441 1323h31l441 -1323l-28 -8l-120 358h-617l-120 -358zM357 1910q71 80 167 80q65 0 152.5 -77t155.5 -77q93 0 115 51l27 -11q-1 -2 -7 -12q-40 -58 -135 -58q-78 0 -166 77.5t-142 77.5q-75 0 -144 -70zM364 383h599l-300 898z" />
<glyph unicode="&#xc4;" horiz-adv-x="1327" d="M207 4l441 1323h31l441 -1323l-28 -8l-120 358h-617l-120 -358zM364 383h599l-300 898zM427 1692v74h30v-74h-30zM870 1692v74h29v-74h-29z" />
<glyph unicode="&#xc5;" horiz-adv-x="1327" d="M207 4l441 1323h31l441 -1323l-28 -8l-120 358h-617l-120 -358zM364 383h599l-300 898zM464 1729q0 82 58.5 140.5t140.5 58.5t140.5 -58.5t58.5 -140.5t-58.5 -140.5t-140.5 -58.5t-140.5 58.5t-58.5 140.5zM494 1729q0 -70 49.5 -119.5t119.5 -49.5t120 49.5t50 119.5 t-50 119.5t-120 49.5t-119.5 -49.5t-49.5 -119.5z" />
<glyph unicode="&#xc6;" horiz-adv-x="1622" d="M207 4l445 1338h748v-30h-431v-560h322v-29h-322v-709h431v-28h-460v368h-585l-120 -358zM364 383h576v929h-266z" />
<glyph unicode="&#xc7;" d="M206 369v589q0 191 112 292q101 92 271 92h222v-30h-222q-159 0 -251 -84q-102 -92 -102 -270v-589q0 -178 102 -271q92 -84 251 -84h222v-28h-222q-36 0 -62 3l-71 -288l-28 7l70 285q-292 52 -292 376z" />
<glyph unicode="&#xc8;" d="M206 -14v1356h605v-30h-575v-560h427v-29h-427v-709h575v-28h-605zM360 1903l17 24l295 -223l-18 -24z" />
<glyph unicode="&#xc9;" d="M206 -14v1356h605v-30h-575v-560h427v-29h-427v-709h575v-28h-605zM360 1704l294 223l18 -24l-295 -223z" />
<glyph unicode="&#xca;" d="M206 -14v1356h605v-30h-575v-560h427v-29h-427v-709h575v-28h-605zM284 1703l232 223l232 -223l-21 -22l-211 204l-211 -204z" />
<glyph unicode="&#xcb;" d="M206 -14v1356h605v-30h-575v-560h427v-29h-427v-709h575v-28h-605zM280 1692v74h30v-74h-30zM723 1692v74h29v-74h-29z" />
<glyph unicode="&#xcc;" horiz-adv-x="442" d="M65 1903l18 24l294 -223l-17 -24zM206 0v1327h30v-1327h-30z" />
<glyph unicode="&#xcd;" horiz-adv-x="442" d="M65 1704l295 223l17 -24l-294 -223zM206 0v1327h30v-1327h-30z" />
<glyph unicode="&#xce;" horiz-adv-x="442" d="M-10 1703l231 223l232 -223l-21 -22l-211 204l-211 -204zM206 0v1327h30v-1327h-30z" />
<glyph unicode="&#xcf;" horiz-adv-x="442" d="M59 1692v74h29v-74h-29zM206 0v1327h30v-1327h-30zM354 1692v74h29v-74h-29z" />
<glyph unicode="&#xd0;" horiz-adv-x="1180" d="M148 649v30h58v663h347q142 0 270 -106q150 -124 150 -314v-516q0 -190 -150 -314q-128 -106 -270 -106h-347v663h-58zM236 14h317q132 0 252 100q139 116 139 292v516q0 176 -139 291q-120 99 -252 99h-317v-633h317v-30h-317v-635z" />
<glyph unicode="&#xd1;" horiz-adv-x="1180" d="M206 0v1327h32l706 -1270v1270h29v-1327h-32l-705 1270v-1270h-30zM286 1863q71 80 166 80q65 0 152.5 -77.5t155.5 -77.5q92 0 115 52l27 -11q-1 -3 -7 -13q-39 -57 -135 -57q-78 0 -166 77t-142 77q-75 0 -144 -70z" />
<glyph unicode="&#xd2;" horiz-adv-x="1180" d="M206 369v589q0 159 112 271.5t271 112.5t271.5 -112.5t112.5 -271.5v-589q0 -159 -112.5 -271t-271.5 -112t-271 112t-112 271zM236 369q0 -147 103.5 -251t249.5 -104q147 0 251 104t104 251v589q0 146 -104 250t-251 104q-146 0 -249.5 -103.5t-103.5 -250.5v-589z M434 1903l17 24l295 -223l-18 -24z" />
<glyph unicode="&#xd3;" horiz-adv-x="1180" d="M206 369v589q0 159 112 271.5t271 112.5t271.5 -112.5t112.5 -271.5v-589q0 -159 -112.5 -271t-271.5 -112t-271 112t-112 271zM236 369q0 -147 103.5 -251t249.5 -104q147 0 251 104t104 251v589q0 146 -104 250t-251 104q-146 0 -249.5 -103.5t-103.5 -250.5v-589z M432 1704l294 223l18 -24l-295 -223z" />
<glyph unicode="&#xd4;" horiz-adv-x="1180" d="M206 369v589q0 159 112 271.5t271 112.5t271.5 -112.5t112.5 -271.5v-589q0 -159 -112.5 -271t-271.5 -112t-271 112t-112 271zM236 369q0 -147 103.5 -251t249.5 -104q147 0 251 104t104 251v589q0 146 -104 250t-251 104q-146 0 -249.5 -103.5t-103.5 -250.5v-589z M358 1703l231 223l233 -223l-21 -22l-212 204l-210 -204z" />
<glyph unicode="&#xd5;" horiz-adv-x="1180" d="M206 369v589q0 159 112 271.5t271 112.5t271.5 -112.5t112.5 -271.5v-589q0 -159 -112.5 -271t-271.5 -112t-271 112t-112 271zM236 369q0 -147 103.5 -251t249.5 -104q147 0 251 104t104 251v589q0 146 -104 250t-251 104q-146 0 -249.5 -103.5t-103.5 -250.5v-589z M276 1844q71 80 167 80q65 0 152.5 -77.5t155.5 -77.5q92 0 115 52l27 -11q-1 -2 -7 -12q-39 -57 -135 -57q-78 0 -166 76.5t-142 76.5q-75 0 -144 -70z" />
<glyph unicode="&#xd6;" horiz-adv-x="1180" d="M206 369v589q0 159 112 271.5t271 112.5t271.5 -112.5t112.5 -271.5v-589q0 -159 -112.5 -271t-271.5 -112t-271 112t-112 271zM236 369q0 -147 103.5 -251t249.5 -104q147 0 251 104t104 251v589q0 146 -104 250t-251 104q-146 0 -249.5 -103.5t-103.5 -250.5v-589z M354 1692v74h29v-74h-29zM796 1692v74h30v-74h-30z" />
<glyph unicode="&#xd7;" horiz-adv-x="1806" d="M211 11l671 652l-671 654l20 20l673 -653l671 653l21 -20l-672 -654l672 -652l-21 -22l-671 654l-673 -654z" />
<glyph unicode="&#xd8;" horiz-adv-x="1180" d="M135 82l100 141q-29 71 -29 146v589q0 159 112 271.5t271 112.5q202 0 317 -168l114 162l24 -18l-121 -171q50 -88 50 -189v-589q0 -159 -112.5 -271t-271.5 -112q-109 0 -202 57q-89 56 -138 150l-90 -128zM236 369q0 -60 20 -117l632 896q-105 164 -299 164 q-146 0 -249.5 -103.5t-103.5 -250.5v-589zM268 220q43 -92 129.5 -149t191.5 -57q147 0 251 104t104 251v589q0 85 -40 162z" />
<glyph unicode="&#xd9;" horiz-adv-x="1180" d="M206 369v958h30v-958q0 -147 103.5 -251t249.5 -104q147 0 251 104t104 251v958h29v-958q0 -159 -112.5 -271t-271.5 -112t-271 112t-112 271zM424 1903l18 24l295 -223l-18 -24z" />
<glyph unicode="&#xda;" horiz-adv-x="1180" d="M206 369v958h30v-958q0 -147 103.5 -251t249.5 -104q147 0 251 104t104 251v958h29v-958q0 -159 -112.5 -271t-271.5 -112t-271 112t-112 271zM424 1704l295 223l18 -24l-295 -223z" />
<glyph unicode="&#xdb;" horiz-adv-x="1180" d="M206 369v958h30v-958q0 -147 103.5 -251t249.5 -104q147 0 251 104t104 251v958h29v-958q0 -159 -112.5 -271t-271.5 -112t-271 112t-112 271zM358 1703l231 223l233 -223l-21 -22l-212 204l-210 -204z" />
<glyph unicode="&#xdc;" horiz-adv-x="1180" d="M206 369v958h30v-958q0 -147 103.5 -251t249.5 -104q147 0 251 104t104 251v958h29v-958q0 -159 -112.5 -271t-271.5 -112t-271 112t-112 271zM354 1692v74h29v-74h-29zM796 1692v74h30v-74h-30z" />
<glyph unicode="&#xdd;" horiz-adv-x="1364" d="M209 1318l24 18l447 -647l447 647l24 -18l-456 -659v-659h-30v659zM508 1704l294 223l18 -24l-295 -223z" />
<glyph unicode="&#xde;" horiz-adv-x="1217" d="M206 0v1327h30v-317q127 112 317 112q186 0 322.5 -128t136.5 -311t-136.5 -311.5t-322.5 -128.5t-317 113v-356h-30zM236 397q124 -124 317 -124q175 0 303 120t128 290t-128 290t-303 120q-198 0 -317 -124v-572z" />
<glyph unicode="&#xdf;" horiz-adv-x="1180" d="M206 0v1069q0 93 58 176q70 97 179 97h257q147 0 217 -79q56 -61 56 -155v-87q0 -160 -150 -216q150 -45 150 -241v-328q0 -250 -225 -250v28q196 0 196 222v328q0 203 -174 221q-10 1 -30 1h-1l-1 -1l-2 29h2q7 0 31 5q175 36 175 202v87q0 204 -244 204h-257 q-93 0 -154 -85q-53 -73 -53 -158v-1069h-30z" />
<glyph unicode="&#xe0;" d="M206 221q0 143 109 202q63 34 149 34h332v160q0 138 -102 204q-75 49 -178 49h-221v29h221q111 0 194 -53q116 -74 116 -229v-631h-362q-81 0 -145 33q-113 58 -113 202zM236 221q0 -125 97 -177q57 -30 131 -30h332v413h-332q-228 0 -228 -206zM360 1462l17 25l295 -222 l-18 -23z" />
<glyph unicode="&#xe1;" d="M206 221q0 143 109 202q63 34 149 34h332v160q0 138 -102 204q-75 49 -178 49h-221v29h221q111 0 194 -53q116 -74 116 -229v-631h-362q-81 0 -145 33q-113 58 -113 202zM236 221q0 -125 97 -177q57 -30 131 -30h332v413h-332q-228 0 -228 -206zM360 1265l294 222l18 -25 l-295 -220z" />
<glyph unicode="&#xe2;" d="M206 221q0 143 109 202q63 34 149 34h332v160q0 138 -102 204q-75 49 -178 49h-221v29h221q111 0 194 -53q116 -74 116 -229v-631h-362q-81 0 -145 33q-113 58 -113 202zM236 221q0 -125 97 -177q57 -30 131 -30h332v413h-332q-228 0 -228 -206zM284 1264l232 224 l232 -224l-21 -21l-211 203l-211 -203z" />
<glyph unicode="&#xe3;" d="M206 221q0 143 109 202q63 34 149 34h332v160q0 138 -102 204q-75 49 -178 49h-221v29h221q111 0 194 -53q116 -74 116 -229v-631h-362q-81 0 -145 33q-113 58 -113 202zM212 1417q71 80 166 80q65 0 152.5 -77.5t155.5 -77.5q93 0 115 51l27 -11q0 -2 -6 -12 q-40 -58 -136 -58q-78 0 -166 77.5t-142 77.5q-75 0 -144 -70zM236 221q0 -125 97 -177q57 -30 131 -30h332v413h-332q-228 0 -228 -206z" />
<glyph unicode="&#xe4;" d="M206 221q0 143 109 202q63 34 149 34h332v160q0 138 -102 204q-75 49 -178 49h-221v29h221q111 0 194 -53q116 -74 116 -229v-631h-362q-81 0 -145 33q-113 58 -113 202zM236 221q0 -125 97 -177q57 -30 131 -30h332v413h-332q-228 0 -228 -206zM280 1254v73h30v-73h-30z M723 1254v73h29v-73h-29z" />
<glyph unicode="&#xe5;" d="M206 221q0 143 109 202q63 34 149 34h332v160q0 138 -102 204q-75 49 -178 49h-221v29h221q111 0 194 -53q116 -74 116 -229v-631h-362q-81 0 -145 33q-113 58 -113 202zM236 221q0 -125 97 -177q57 -30 131 -30h332v413h-332q-228 0 -228 -206zM308 1291q0 82 58 140 t140 58t140 -58t58 -140t-58 -140t-140 -58t-140 58t-58 140zM337 1291q0 -70 49.5 -119.5t119.5 -49.5t119.5 49.5t49.5 119.5t-49.5 119.5t-119.5 49.5t-119.5 -49.5t-49.5 -119.5z" />
<glyph unicode="&#xe6;" horiz-adv-x="1327" d="M206 221q0 143 109 202q63 34 149 34h185v160q0 138 -102 204q-75 49 -178 49h-74v29h74q88 0 162 -35q99 -47 132 -146q46 181 222 181q235 0 235 -310v-162h-441v-132q0 -169 67 -230q55 -51 190 -51h170v-28h-170q-203 0 -257 126v-126h-215q-81 0 -145 33 q-113 58 -113 202zM236 221q0 -125 97 -177q57 -30 131 -30h185v413h-185q-228 0 -228 -206zM679 457h412v132q0 281 -206 281t-206 -281v-132z" />
<glyph unicode="&#xe7;" horiz-adv-x="885" d="M206 258v368q0 113 80 193t193 80h184v-29h-184q-101 0 -172 -71.5t-71 -172.5v-368q0 -101 71 -172.5t172 -71.5h184v-28h-184q-14 0 -25 1l-71 -286l-28 7l70 283q-94 19 -156.5 94t-62.5 173z" />
<glyph unicode="&#xe8;" d="M206 295v294q0 128 91 219t219 91t219 -91t91 -219v-162h-590v-132q0 -169 67 -230q56 -51 191 -51h317v-28h-317q-147 0 -211 58q-77 69 -77 251zM236 457h560v132q0 116 -82 198.5t-198 82.5t-198 -82.5t-82 -198.5v-132zM360 1462l17 25l295 -222l-18 -23z" />
<glyph unicode="&#xe9;" d="M206 295v294q0 128 91 219t219 91t219 -91t91 -219v-162h-590v-132q0 -169 67 -230q56 -51 191 -51h317v-28h-317q-147 0 -211 58q-77 69 -77 251zM236 457h560v132q0 116 -82 198.5t-198 82.5t-198 -82.5t-82 -198.5v-132zM360 1265l294 222l18 -25l-295 -220z" />
<glyph unicode="&#xea;" d="M206 295v294q0 128 91 219t219 91t219 -91t91 -219v-162h-590v-132q0 -169 67 -230q56 -51 191 -51h317v-28h-317q-147 0 -211 58q-77 69 -77 251zM236 457h560v132q0 116 -82 198.5t-198 82.5t-198 -82.5t-82 -198.5v-132zM284 1264l232 224l232 -224l-21 -21l-211 203 l-211 -203z" />
<glyph unicode="&#xeb;" d="M206 295v294q0 128 91 219t219 91t219 -91t91 -219v-162h-590v-132q0 -169 67 -230q56 -51 191 -51h317v-28h-317q-147 0 -211 58q-77 69 -77 251zM236 457h560v132q0 116 -82 198.5t-198 82.5t-198 -82.5t-82 -198.5v-132zM280 1254v73h30v-73h-30zM723 1254v73h29v-73 h-29z" />
<glyph unicode="&#xec;" horiz-adv-x="442" d="M65 1462l18 25l294 -222l-17 -23zM206 0v885h30v-885h-30z" />
<glyph unicode="&#xed;" horiz-adv-x="442" d="M65 1265l295 222l17 -25l-294 -220zM206 0v885h30v-885h-30z" />
<glyph unicode="&#xee;" horiz-adv-x="442" d="M-10 1264l231 224l232 -224l-21 -21l-211 203l-211 -203zM206 0v885h30v-885h-30z" />
<glyph unicode="&#xef;" horiz-adv-x="442" d="M-14 1254v73h28v-73h-28zM206 0v885h30v-885h-30zM427 1254v73h30v-73h-30z" />
<glyph unicode="&#xf0;" d="M206 295v294q0 128 91 219t219 91q175 0 265 -148q-24 144 -79 262q-61 132 -157 244l-46 -50l-21 20l48 52q-22 23 -39 37l18 22q17 -13 40 -38l34 37l21 -20l-35 -38q100 -115 164 -254q86 -187 94 -398q3 -25 3 -38v-294q0 -128 -91 -218.5t-219 -90.5t-219 90.5 t-91 218.5zM236 295q0 -116 82 -198.5t198 -82.5t198 82.5t82 198.5v294q0 116 -82 198.5t-198 82.5t-198 -82.5t-82 -198.5v-294z" />
<glyph unicode="&#xf1;" d="M206 0v899h347q113 0 193 -80t80 -193v-626h-30v626q0 101 -71 172.5t-172 71.5h-317v-870h-30zM212 1417q71 80 166 80q65 0 152.5 -77.5t155.5 -77.5q93 0 115 51l27 -11q0 -2 -6 -12q-40 -58 -136 -58q-78 0 -166 77.5t-142 77.5q-75 0 -144 -70z" />
<glyph unicode="&#xf2;" d="M206 295v294q0 128 91 219t219 91t219 -91t91 -219v-294q0 -128 -91 -218.5t-219 -90.5t-219 90.5t-91 218.5zM236 295q0 -116 82 -198.5t198 -82.5t198 82.5t82 198.5v294q0 116 -82 198.5t-198 82.5t-198 -82.5t-82 -198.5v-294zM360 1462l17 25l295 -222l-18 -23z" />
<glyph unicode="&#xf3;" d="M206 295v294q0 128 91 219t219 91t219 -91t91 -219v-294q0 -128 -91 -218.5t-219 -90.5t-219 90.5t-91 218.5zM236 295q0 -116 82 -198.5t198 -82.5t198 82.5t82 198.5v294q0 116 -82 198.5t-198 82.5t-198 -82.5t-82 -198.5v-294zM360 1265l294 222l18 -25l-295 -220z " />
<glyph unicode="&#xf4;" d="M206 295v294q0 128 91 219t219 91t219 -91t91 -219v-294q0 -128 -91 -218.5t-219 -90.5t-219 90.5t-91 218.5zM236 295q0 -116 82 -198.5t198 -82.5t198 82.5t82 198.5v294q0 116 -82 198.5t-198 82.5t-198 -82.5t-82 -198.5v-294zM284 1264l232 224l232 -224l-21 -21 l-211 203l-211 -203z" />
<glyph unicode="&#xf5;" d="M206 295v294q0 128 91 219t219 91t219 -91t91 -219v-294q0 -128 -91 -218.5t-219 -90.5t-219 90.5t-91 218.5zM212 1417q71 80 166 80q65 0 152.5 -77.5t155.5 -77.5q93 0 115 51l27 -11q0 -2 -6 -12q-40 -58 -136 -58q-78 0 -166 77.5t-142 77.5q-75 0 -144 -70z M236 295q0 -116 82 -198.5t198 -82.5t198 82.5t82 198.5v294q0 116 -82 198.5t-198 82.5t-198 -82.5t-82 -198.5v-294z" />
<glyph unicode="&#xf6;" d="M206 295v294q0 128 91 219t219 91t219 -91t91 -219v-294q0 -128 -91 -218.5t-219 -90.5t-219 90.5t-91 218.5zM236 295q0 -116 82 -198.5t198 -82.5t198 82.5t82 198.5v294q0 116 -82 198.5t-198 82.5t-198 -82.5t-82 -198.5v-294zM280 1254v73h30v-73h-30zM723 1254v73 h29v-73h-29z" />
<glyph unicode="&#xf7;" d="M221 427v30h590v-30h-590zM501 74v74h30v-74h-30zM501 737v74h30v-74h-30z" />
<glyph unicode="&#xf8;" horiz-adv-x="1327" d="M204 664q0 190 134 324t324 134q70 0 133 -19l75 229l29 -10l-76 -229q132 -49 214.5 -166t82.5 -263q0 -190 -134 -324t-324 -134q-65 0 -129 19l-77 -229l-28 8l77 230q-133 49 -217 166.5t-84 263.5zM234 664q0 -137 78 -246.5t202 -155.5l271 813q-60 18 -123 18 q-177 0 -302.5 -125.5t-125.5 -303.5zM543 253q58 -17 119 -17q178 0 303.5 125.5t125.5 302.5q0 136 -77 246t-200 156z" />
<glyph unicode="&#xf9;" d="M206 258v627h30v-627q0 -101 71 -172.5t172 -71.5h317v871h30v-899h-347q-113 0 -193 79.5t-80 192.5zM360 1462l17 25l295 -222l-18 -23z" />
<glyph unicode="&#xfa;" d="M206 258v627h30v-627q0 -101 71 -172.5t172 -71.5h317v871h30v-899h-347q-113 0 -193 79.5t-80 192.5zM360 1265l294 222l18 -25l-295 -220z" />
<glyph unicode="&#xfb;" d="M206 258v627h30v-627q0 -101 71 -172.5t172 -71.5h317v871h30v-899h-347q-113 0 -193 79.5t-80 192.5zM284 1264l232 224l232 -224l-21 -21l-211 203l-211 -203z" />
<glyph unicode="&#xfc;" d="M206 258v627h30v-627q0 -101 71 -172.5t172 -71.5h317v871h30v-899h-347q-113 0 -193 79.5t-80 192.5zM280 1254v73h30v-73h-30zM723 1254v73h29v-73h-29z" />
<glyph unicode="&#xfd;" d="M207 880l28 9l281 -842l281 842l28 -9l-446 -1337h-158v30h137l142 427zM360 1265l294 222l18 -25l-295 -220z" />
<glyph unicode="&#xfe;" horiz-adv-x="922" d="M206 0v1327h30v-418q85 64 190 64q117 0 205 -72q106 -86 106 -238t-106 -237q-88 -72 -205 -72q-105 0 -190 64v-418h-30zM236 456q79 -73 190 -73q107 0 186 65q95 78 95 215t-95 215q-80 66 -186 66q-111 0 -190 -73v-415z" />
<glyph unicode="&#xff;" d="M207 880l28 9l281 -842l281 842l28 -9l-446 -1337h-158v30h137l142 427zM280 1254v73h30v-73h-30zM723 1254v73h29v-73h-29z" />
<glyph unicode="&#x2000;" horiz-adv-x="1050" />
<glyph unicode="&#x2001;" horiz-adv-x="2101" />
<glyph unicode="&#x2002;" horiz-adv-x="1050" />
<glyph unicode="&#x2003;" horiz-adv-x="2101" />
<glyph unicode="&#x2004;" horiz-adv-x="700" />
<glyph unicode="&#x2005;" horiz-adv-x="525" />
<glyph unicode="&#x2006;" horiz-adv-x="350" />
<glyph unicode="&#x2007;" horiz-adv-x="350" />
<glyph unicode="&#x2008;" horiz-adv-x="262" />
<glyph unicode="&#x2009;" horiz-adv-x="420" />
<glyph unicode="&#x200a;" horiz-adv-x="116" />
<glyph unicode="&#x2010;" d="M221 427v30h590v-30h-590z" />
<glyph unicode="&#x2011;" d="M221 427v30h590v-30h-590z" />
<glyph unicode="&#x2012;" d="M221 427v30h590v-30h-590z" />
<glyph unicode="&#x2013;" horiz-adv-x="1466" d="M221 427v30h1024v-30h-1024z" />
<glyph unicode="&#x2014;" horiz-adv-x="2490" d="M221 427v30h2048v-30h-2048z" />
<glyph unicode="&#x202f;" horiz-adv-x="420" />
<glyph unicode="&#x205f;" horiz-adv-x="525" />
<glyph unicode="&#x25fc;" horiz-adv-x="895" d="M0 0v895h895v-895h-895z" />
</font>
</defs>
</svg>
